<?xml version="1.0" encoding="utf-8"?>
<!-- Generator: Adobe Illustrator 16.0.0, SVG Export Plug-In . SVG Version: 6.00 Build 0)  -->
<!DOCTYPE svg PUBLIC "-//W3C//DTD SVG 1.1//EN" "http://www.w3.org/Graphics/SVG/1.1/DTD/svg11.dtd">
<svg version="1.1" id="Layer_1" xmlns="http://www.w3.org/2000/svg" xmlns:xlink="http://www.w3.org/1999/xlink" x="0px" y="0px"
	 width="292.485px" height="41.998px" viewBox="0 0 292.485 41.998" enable-background="new 0 0 292.485 41.998"
	 xml:space="preserve">
<path fill="#F48CF4" d="M244.346,15.978c0,0,1.825-6.374-4.899-8.048c-5.724-1.425-8.07,4.265-7.161,7.727
	c-2.661,6.535,3.988,7.258,3.988,7.258l3.01,12.994h0.475l2.488-13.344l-0.184-0.181C244.558,22.006,246.804,18.786,244.346,15.978z
	"/>
<path fill="#969696" d="M255.978,6.487c0,0-8.957,13.756-0.324,24.526l-3.422,3.661l4.474-1.481l4.759,1.481l-2.889-3.597
	c0,0,5.582-10.083,0.654-24.59l-2.097,3.578L255.978,6.487z"/>
<circle fill="#FFFFFF" cx="255.444" cy="11.029" r="0.541"/>
<path fill="#42D14B" d="M273.547,13.177c7.817,0.57,4.46,9.782,4.46,9.782c7.549,9.497,0,11.628,0,11.628
	c-3.607,1.665-7.672,0-7.672,0c-6.947-2.846-0.725-11.434-0.725-11.434C265.069,13.177,273.547,13.177,273.547,13.177"/>
<path fill="#42D14B" d="M274.902,11.174c0,0,0.04-2.023,2.689-1.589C280.243,10.017,277.74,12.907,274.902,11.174z"/>
<path fill="none" stroke="#59440E" stroke-width="0.5" stroke-miterlimit="10" d="M273.34,9.53c0.045,1.143,0.04,1.145-0.034,4.263"
	/>
<text transform="matrix(1 0 0 1 12.147 34.9077)" fill="#F7931E" font-family="'ShreeDev0714'" font-size="29" letter-spacing="-1">The Weather Dish</text>
</svg>
