<?xml version="1.0" encoding="utf-8"?>
<!-- Generator: Adobe Illustrator 16.0.0, SVG Export Plug-In . SVG Version: 6.00 Build 0)  -->
<!DOCTYPE svg PUBLIC "-//W3C//DTD SVG 1.1//EN" "http://www.w3.org/Graphics/SVG/1.1/DTD/svg11.dtd">
<svg version="1.1" id="Layer_1" xmlns="http://www.w3.org/2000/svg" xmlns:xlink="http://www.w3.org/1999/xlink" x="0px" y="0px"
	 width="65px" height="38px" viewBox="0 0 65 38" enable-background="new 0 0 65 38" xml:space="preserve">
<path fill="#F48CF4" d="M25.448,12.07c0,0,1.825-6.374-4.899-8.048c-5.724-1.425-8.07,4.265-7.161,7.727
	c-2.661,6.535,3.988,7.091,3.988,7.091l3.01,12.827h0.475l2.488-13.177l-0.184-0.098C25.66,18.015,27.906,14.878,25.448,12.07z"/>
<path fill="#969696" d="M37.081,2.58c0,0-8.957,13.756-0.325,24.525l-3.421,3.662l4.473-1.481l4.758,1.481l-2.889-3.597
	c0,0,5.583-10.083,0.654-24.59l-2.096,3.578L37.081,2.58z"/>
<circle fill="#FFFFFF" cx="36.547" cy="7.122" r="0.54"/>
<path fill="#42D14B" d="M54.649,9.269c7.817,0.57,4.46,9.782,4.46,9.782c7.548,9.497,0,11.628,0,11.628
	c-3.608,1.666-7.672,0-7.672,0c-6.947-2.846-0.724-11.433-0.724-11.433C46.172,9.269,54.649,9.269,54.649,9.269"/>
<path fill="#42D14B" d="M56.005,7.266c0,0,0.04-2.023,2.689-1.589C61.345,6.109,58.843,8.999,56.005,7.266z"/>
<path fill="none" stroke="#59440E" stroke-width="0.5" stroke-miterlimit="10" d="M54.442,5.623c0.045,1.143,0.04,1.145-0.034,4.263
	"/>
</svg>
